<svg width="229" height="290" viewBox="0 0 229 290" fill="none" xmlns="http://www.w3.org/2000/svg">
<path d="M98 149.95C98 149.95 96 127.45 118.5 127.45C141 127.45 136 149.95 136 149.95V209.45L159 233.95L118.5 250.95L74.5 233.95M136 176.95C136 176.95 136 137.45 136 123.95C136 110.45 222.5 98.9496 222.5 123.95C222.5 148.95 222.5 176.95 222.5 176.95H136ZM98 120.45C98 127.95 98 184.95 98 184.95H6C6 184.95 6 138.95 6 123.95C6 108.95 98 112.95 98 120.45Z" stroke="black" stroke-width="12" stroke-linejoin="round"/>
<path d="M210 111.795C210 111.795 210 125.947 210 56.4496C210 -13.0478 18.5 -8.54767 18.5 56.4496C18.5 121.447 18.5 116.395 18.5 116.395" stroke="black" stroke-width="12" stroke-linejoin="round"/>
<path d="M210 177.45V289.45M18 289.45V184.162" stroke="black" stroke-width="12" stroke-linejoin="round"/>
<path d="M18.5 91.4497L43.076 67.6873V41.4497H185.924V67.6873L210.5 91.4497" stroke="black" stroke-width="10"/>
</svg>
