<svg width="317" height="502" viewBox="0 0 317 502" fill="none" xmlns="http://www.w3.org/2000/svg">
<path d="M158.5 0C246.037 0 317 70.9629 317 158.5C317 193.175 305.863 225.248 286.975 251.341L232 346.56V378H86V346.56L34.2236 256.881C12.7973 229.851 0 195.671 0 158.5C0 70.9629 70.9629 0 158.5 0ZM159.052 37C88.8831 37 32 93.8831 32 164.052C32 193.846 42.2577 221.244 59.4316 242.91L100.937 314.798V340H217.968V314.799L262.039 238.466C277.178 217.551 286.103 191.844 286.104 164.052C286.104 93.8832 229.22 37.0001 159.052 37Z" fill="black"/>
<path d="M231 404.686L107.544 502H87V484.371L207.993 389H231V404.686ZM231 502H198.263L231 476.194V502ZM231 453.274L169.186 502H136.621L231 427.605V453.274ZM87 461.451V433.02L142.846 389H178.915L87 461.451ZM87 410.101V389H113.77L87 410.101Z" fill="black"/>
</svg>
