<svg width="608" height="608" viewBox="0 0 608 608" fill="none" xmlns="http://www.w3.org/2000/svg">
<path d="M304 0C471.895 0 608 136.105 608 304C608 471.895 471.895 608 304 608C136.105 608 0 471.895 0 304C0 136.105 136.105 0 304 0ZM304 75C177.527 75 75 177.527 75 304C75 430.473 177.527 533 304 533C430.473 533 533 430.473 533 304C533 177.527 430.473 75 304 75Z" fill="white"/>
<path d="M285.562 197.102V156.672H320.719V197.102H285.562ZM285.562 443V235.578H320.719V443H285.562Z" fill="white"/>
</svg>
