<svg width="608" height="608" viewBox="0 0 608 608" fill="none" xmlns="http://www.w3.org/2000/svg">
<path d="M304 0C471.895 0 608 136.105 608 304C608 471.895 471.895 608 304 608C136.105 608 0 471.895 0 304C0 136.105 136.105 0 304 0ZM304 75C177.527 75 75 177.527 75 304C75 430.473 177.527 533 304 533C430.473 533 533 430.473 533 304C533 177.527 430.473 75 304 75Z" fill="white"/>
<path d="M285.188 372.492C285.057 367.805 284.992 364.289 284.992 361.945C284.992 348.143 286.945 336.229 290.852 326.203C293.716 318.651 298.339 311.034 304.719 303.352C309.406 297.753 317.805 289.615 329.914 278.938C342.154 268.13 350.096 259.536 353.742 253.156C357.388 246.776 359.211 239.81 359.211 232.258C359.211 218.586 353.872 206.607 343.195 196.32C332.518 185.904 319.432 180.695 303.938 180.695C288.964 180.695 276.464 185.383 266.438 194.758C256.411 204.133 249.836 218.781 246.711 238.703L210.578 234.406C213.833 207.714 223.469 187.271 239.484 173.078C255.63 158.885 276.919 151.789 303.352 151.789C331.346 151.789 353.677 159.406 370.344 174.641C387.01 189.875 395.344 208.299 395.344 229.914C395.344 242.414 392.414 253.938 386.555 264.484C380.695 275.031 369.237 287.857 352.18 302.961C340.721 313.117 333.234 320.604 329.719 325.422C326.203 330.24 323.599 335.773 321.906 342.023C320.214 348.273 319.237 358.43 318.977 372.492H285.188ZM283.039 443V402.961H323.078V443H283.039Z" fill="white"/>
</svg>
