<svg width="553" height="616" viewBox="0 0 553 616" fill="none" xmlns="http://www.w3.org/2000/svg">
<path fill-rule="evenodd" clip-rule="evenodd" d="M265 11.2373C262.136 12.4573 259.148 13.4403 256.169 14.4206C251.639 15.9107 247.128 17.3949 243.095 19.697C240.59 23.4601 236.982 24.1317 233.552 24.7702C231.074 25.2316 228.688 25.6757 226.878 27.256C219.712 25.5539 219.008 29.6642 218.239 34.1496C217.791 36.77 217.32 39.5185 215.526 41.3108C214.426 45.1022 216.047 47.7928 219.291 49.4123C219.751 51.9049 220.678 54.1089 221.601 56.3036C222.886 59.3577 224.163 62.394 224.163 66.1657C225.249 65.7372 226.591 65.8242 227.915 65.9099C229.9 66.0386 231.842 66.1644 232.815 64.5442C237.68 68.3355 240.923 71.5746 240.923 77.5062C238.779 80.2264 236.059 81.2975 232.815 81.8459C228.81 85.51 229.132 90.4196 229.461 95.4173C229.664 98.5131 229.869 101.643 229.05 104.531C227.121 105.601 225.786 107.512 224.443 109.433C222.383 112.379 220.306 115.351 216.047 115.351C214.914 114.966 215.11 113.267 215.331 111.359C215.426 110.538 215.526 109.679 215.526 108.869C203.862 103.506 202.302 109.899 200.565 117.019C199.322 122.115 197.988 127.583 192.793 129.382C188.338 128.403 184.342 130.139 180.788 131.684C180.462 131.826 180.139 131.966 179.82 132.102C178.964 133.668 177.882 135.121 176.802 136.571C173.793 140.612 170.802 144.628 172.784 150.996C172.298 154.439 175.378 156.987 178.482 159.553C182.21 162.636 185.97 165.745 183.615 170.467C181.647 177.19 175.606 177.951 170.174 178.636C165.131 179.272 160.612 179.841 160.361 185.051C156.018 182.331 151.151 180.711 145.216 181.81C143.198 181.81 141.363 182.741 139.6 183.637C137.114 184.899 134.768 186.091 132.243 184.5C125.728 190.982 114.926 190.982 105.716 188.84C100.851 190.982 94.9145 193.701 93.8424 197.462C87.3292 203.944 83.0133 209.355 83.0133 218.528C78.2242 216.356 73.4158 217.688 69.1821 218.861C68.1674 219.142 67.1858 219.414 66.2454 219.627C63.9472 217.07 60.8009 216.323 57.608 215.565C54.0451 214.719 50.4241 213.859 47.8585 210.456C46.695 210.138 45.5726 209.799 44.475 209.468C39.9726 208.109 35.8881 206.876 31.0926 207.736C28.8475 209.168 26.2926 210.291 23.7779 211.396C19.6408 213.214 15.6128 214.984 13.2526 218.007C5.59978 216.868 5.67757 220.933 5.76705 225.608C5.8482 229.848 5.93896 234.59 0.27941 236.408C0.27941 237.052 0.214835 237.765 0.147788 238.504C-0.0621425 240.821 -0.296518 243.406 1.34948 245.03C4.43575 246.577 7.31628 248.529 10.1863 250.473C15.3671 253.983 20.5138 257.47 26.7748 258.513C31.5064 257.097 36.6392 260.632 41.1054 263.708C41.7491 264.151 42.379 264.585 42.9918 264.993C42.6906 265.523 42.3899 266.073 42.0854 266.63C40.1941 270.089 38.1517 273.825 34.8833 274.773C33.8132 281.774 34.8833 288.776 38.6779 295.258C38.2006 296.211 37.8637 297.214 37.5153 298.251C36.6793 300.74 35.7775 303.424 32.7115 306.078C35.4887 314.684 43.2389 318.45 51.2285 322.332C58.8188 326.02 66.6251 329.814 70.5889 337.961C68.83 342.32 70.9834 343.87 73.5889 345.746C74.2005 346.187 74.837 346.645 75.4536 347.162C72.1295 352.289 75.1882 354.882 78.3638 357.575C80.888 359.716 83.4861 361.919 83.0113 365.507C82.4625 366.604 81.3904 368.746 79.2186 367.706V375.228C90.8417 379.561 90.4441 387.338 90.0298 395.442C89.7691 400.542 89.5017 405.772 92.2195 410.354C96.9519 409.188 101.689 409.977 106.244 410.735C112.088 411.707 117.632 412.629 122.482 409.313C123.222 410.043 124.023 410.713 124.801 411.363C126.305 412.62 127.722 413.804 128.446 415.215C134.517 414.683 138.049 418.353 141.633 422.077C145.074 425.652 148.563 429.277 154.393 429.277C164.302 430.234 168.547 437.055 172.819 443.918C175.775 448.667 178.744 453.437 183.611 456.3C183.611 461.395 185.317 465.847 186.986 470.206C187.972 472.78 188.946 475.321 189.548 477.941C190.189 479.4 190.923 480.889 191.666 482.397C195.318 489.806 199.187 497.656 193.34 504.386C190.771 514.214 198.034 520.564 202.931 524.846C203.167 525.052 203.397 525.253 203.621 525.45C207.34 530.774 208.577 536.758 209.774 542.552C211.01 548.532 212.205 554.31 216.043 558.954C218.596 567.881 211.782 572.148 205.334 576.184C203.591 577.275 201.874 578.35 200.377 579.495C199.038 583.766 200.454 586.971 201.917 590.285C203.428 593.706 204.989 597.241 203.621 602.18C206.34 603.538 207.635 605.659 208.859 607.664C210.554 610.443 212.115 613 217.145 613C223.081 613 227.944 609.759 229.046 603.8C232.811 607.617 237.154 611.899 243.091 610.28C244.865 609.161 246.874 608.135 248.894 607.103C253.666 604.666 258.495 602.199 260.408 598.416C260.724 598.101 261.018 597.797 261.297 597.508C262.563 596.196 263.534 595.19 265 594.815V549.525C264.609 546.688 264.647 543.671 265 540.504V11.2373Z" fill="black"/>
<path fill-rule="evenodd" clip-rule="evenodd" d="M265 615.746L265.001 615.747L265.001 615.745C271.698 605.053 278.95 594.287 286.195 583.53L286.197 583.527C293.336 572.928 300.469 562.338 307.06 551.838C289.703 537.156 283.221 525.445 283.322 511.1C284.098 500.364 291.594 494.169 296.482 507.196C303.341 521.638 318.02 545.53 338.29 531.5C347.189 525.155 347.057 515.763 334.89 516.893C319.89 515.855 310.7 507.828 303.974 487.047C302.778 475.569 307.589 475.858 314.364 483.269C323.144 492.994 340.429 507.793 359.572 499.892C370.209 495.502 373.207 486.497 357.18 484.34C341.927 484.55 329.567 474.86 317.197 460.162C310.39 452.073 320.37 443.825 326.39 450.78C327.638 451.819 329.004 453.067 330.447 454.384C335.182 458.709 340.741 463.786 345.657 464.695C353.127 466.076 362.318 465.419 372.543 460.099C383.481 451.107 379.925 444.598 366.561 443.098C364.252 443.221 362.177 443.507 360.197 443.78C353.314 444.728 347.591 445.517 337.22 438.754C336.469 438.264 335.66 437.748 334.804 437.201C328.041 432.883 318.301 426.665 310.712 416.779C309.848 415.653 308.988 414.572 308.139 413.504C304.786 409.287 301.59 405.266 298.874 399.464C298.267 398.166 297.675 396.978 297.104 395.832L297.103 395.831C294.475 390.559 292.299 386.195 291.193 376.23C290.254 367.779 292.468 362.114 295.286 359.04C298.104 355.967 302.517 355.394 306.115 356.333C312.825 358.084 318.92 364.901 323.878 370.446C324.239 370.849 324.593 371.246 324.942 371.633C332.906 379.811 338.421 389.619 344.599 400.608L344.599 400.608C348.852 408.174 353.421 416.299 359.321 424.838C361.123 427.131 364.06 426.67 367.128 424.838C372.95 419.974 377.531 416.06 383.31 410.608C394.838 414.277 404.696 416.528 414.554 418.778L414.555 418.778C424.441 421.035 434.327 423.292 445.897 426.979C441.335 428.276 438.45 429.858 435.563 431.441C432.669 433.029 429.772 434.617 425.182 435.92C415.44 430.661 408.009 434.805 404.655 443.917C395.437 450.151 395.326 457.011 399.303 464.066C399.521 463.184 399.615 462.262 399.708 461.341V461.34C400.135 457.131 400.562 452.928 412.841 452.543C425.413 455.221 433.156 451.104 436.578 440.706C441.562 439.13 445.203 437.863 448.883 436.582L448.886 436.581C452.312 435.388 455.772 434.184 460.379 432.709C464.493 436.115 469.664 438.18 474.831 440.243C479.93 442.279 485.023 444.313 489.091 447.632C490.018 457.793 496.406 464.729 513.395 460.414C518.847 463.724 521.814 469.005 523.658 475.147C524.765 468.432 523.569 461.969 521.014 455.691C517.66 440.137 507.711 432.797 488.65 438.25C486.302 436.236 483.514 434.703 480.729 433.172C477.977 431.659 475.228 430.147 472.909 428.175C481.751 427.595 489.978 427.101 498.441 426.592L498.446 426.592C502.143 426.37 505.885 426.145 509.743 425.909C516.266 431.833 524.86 433.535 538.014 425.909C541.166 422.663 545.736 423.557 553 426.538C548.553 418.644 545.735 418.215 539.508 417.269C539.267 417.232 539.021 417.195 538.77 417.156C529.914 406.74 520.038 406.012 507.665 419.297C503.259 419.431 499.304 419.547 495.493 419.658C488.093 419.874 481.234 420.074 472.657 420.367C476.12 417.441 478.778 414.857 481.431 412.277C484.112 409.671 486.789 407.069 490.287 404.122C500.989 407.519 511.443 406.366 515.977 394.425C519.449 390.39 523.302 388.018 532.159 387.688C526.024 382.566 520.924 380.693 509.869 385.799C495.487 379.336 492.727 386.654 490.278 393.147C489.949 394.02 489.625 394.877 489.28 395.685C483.817 399.27 478.872 402.585 473.934 405.896L473.931 405.898C468.877 409.287 463.829 412.672 458.238 416.337C446.931 413.039 436.691 410.468 426.45 407.897L426.448 407.896C416.281 405.344 406.112 402.791 394.895 399.525C397.293 397.044 399.693 394.672 402.093 392.3C404.585 389.838 407.077 387.375 409.566 384.791C410.848 380.51 408.597 378.332 404.907 377.676C368.493 370.298 347.682 355.929 335.016 319.434C329.716 304.163 341.149 299.629 345.09 308.981L345.144 309.109C350.59 322.031 356.57 336.222 372.858 347.201C378.506 351.009 395.27 347.916 385.388 338.638C375.056 330.417 370.664 326.814 365.554 306.715C365.555 296.462 376.211 291.897 382.177 301.678C383.402 305.573 384.416 309.039 385.337 312.189L385.338 312.191C389.162 325.265 391.396 332.905 400.625 343.297C409.331 353.1 420.711 359.651 426.315 359.542C436.498 359.343 446.7 348.658 433.115 340.904C413.23 333.119 405.933 322.449 403.018 312.318C399.813 294.628 403.302 286.043 414.226 294.751C429.727 311.939 459.284 344.016 474.735 358.912C492.114 371.931 511.985 372.344 527.877 359.164C536.927 348.969 533.702 337.927 519.503 340.338C487.478 342.988 463.163 327.398 436.578 285.37C431.312 275.809 429.875 262.224 441.426 272.336C454.703 289.886 474.039 304.863 492.05 311.248C510.061 317.635 526.747 315.427 530.773 308.541C537.453 297.118 535.937 284.553 523.847 288.707C513.937 292.112 499.934 292.996 485.376 287.449C470.817 281.901 455.703 269.923 439.6 249.607C434.116 238.1 435.938 228.379 447.03 234.306C473.384 256.171 507.341 273.871 524.729 263.207C537.464 255.397 537.707 235.437 521.518 236.699C488.869 241.111 476.524 233.984 445.204 206.917C438.037 201.71 438.549 188.557 449.864 196.969C476.256 213.558 512.23 220.06 526.366 211.388C539.084 203.585 537.201 179.835 515.788 188.279C498.684 198.454 479.724 198.153 441.804 171.657C432.248 163.923 439.371 153.744 447.219 158.119C477.712 175.118 522.123 182.366 533.733 147.856C538.186 134.62 530.091 126.914 518.118 136.082C491.952 159.75 462.241 148.107 445.645 136.208C441.3 136.037 432.091 119.556 447.471 122.104C487.189 131.01 526.449 123.304 533.544 95.7843C537.73 86.8573 529.577 71.1016 515.095 84.3248C496.001 102.743 475.779 103.375 450.43 103.214C437.469 100.594 437.362 86.62 448.163 84.5766C468.212 85.0238 488.031 76.4328 503.887 67.702C519.336 59.0419 532.213 46.8232 536.251 29.9232C538.752 14.7819 523.872 -1.28057 514.843 14.7488C501.587 38.2839 472.138 60.3873 439.474 64.365L439.472 64.362C437.785 61.5791 433.457 54.4426 428.204 56.4315C408.977 63.711 382.401 75.9436 360.516 88.0393C356.83 90.0769 359.364 98.1867 361.18 103.997L361.18 103.997L361.18 103.998C361.704 105.674 362.168 107.159 362.405 108.251C363.497 120.687 359.667 128.628 355.731 133.248C351.795 137.869 341.06 140.904 335.016 139.292C322.928 136.068 316.426 125.577 318.456 106.928C318.55 106.636 318.641 106.189 318.76 105.602L318.76 105.602C319.446 102.236 321.071 94.2632 329.475 84.3243C334.435 78.4588 341.38 70.9732 352.394 64.9941C362.585 59.462 377.611 56.2079 395.682 52.2941C397.142 51.9778 398.622 51.6572 400.121 51.3308C412.323 48.937 418.521 44.3438 419.263 39.4305C417.435 39.8537 415.242 40.6302 412.896 41.4602L412.896 41.4604C407.747 43.2826 401.87 45.3629 397.54 44.5306C392.596 43.5801 389.605 41.4834 387.194 39.7932L387.194 39.7929C386.583 39.3648 386.009 38.9627 385.451 38.6119C388.387 37.9979 392.894 38.2222 397.728 38.4627C400.469 38.5991 403.315 38.7408 406.04 38.7378C412.021 38.7321 417.443 37.7283 421.656 36.9484C422.748 36.7462 423.759 36.559 424.678 36.4082C433.948 34.8866 441.304 31.1033 445.708 22.6189C447.612 13.4838 441.501 11.8283 435.76 17.7077C433.821 19.6922 432.5 21.2099 431.417 22.4547L431.416 22.4559C429.777 24.3382 428.682 25.5962 426.818 26.9004C423.722 29.0669 418.514 31.1606 414.792 31.8116C414.484 31.8655 414.176 31.9197 413.868 31.9739L413.829 31.9808C406.605 33.2514 399.393 34.52 390.173 32.3157C392.076 29.9317 396.359 26.0779 400.247 23.6897C404.135 21.3016 407.943 20.1265 411.581 20.7304C414.01 21.1379 417.171 23.2987 419.767 27.2787C421.37 17.25 418.529 5.97961 391.244 10.656C391.608 3.13803 375.35 -0.150185 365.554 0.0150337L365.544 0C359.996 0.0934105 348.615 3.34651 340.421 7.17801C327.46 11.1052 314.578 13.9787 299.494 15.0486C305.331 19.9515 308.025 21.7568 311.81 24.293C313.673 25.5415 315.801 26.9672 318.698 29.0267C305.401 33.8636 295.101 43.8899 290.49 50.4355C294.751 50.6398 297.966 50.6375 300.522 50.6357C304.934 50.6326 307.387 50.6309 309.883 51.694C293.704 56.38 286.38 59.1256 277.833 67.6866L278.111 67.7371L278.111 67.7372C281.128 68.2861 285.415 69.0662 287.278 69.7644C289.265 70.5091 288.442 71.5303 287.09 72.9755C284.838 74.3844 278.724 81.0997 273.327 87.0269L273.325 87.0282C269.839 90.8571 266.652 94.3568 265 95.8848V615.746ZM364.105 17.5822C356.134 17.5822 351.197 20.3146 351.197 23.6267C351.197 26.9964 356.134 29.7344 364.105 29.7344C372.043 29.7344 377.076 26.7465 377.076 23.375C377.074 20.0629 372.043 17.5822 364.105 17.5822Z" fill="black"/>
</svg>
