<svg width="320" height="519" viewBox="0 0 320 519" fill="none" xmlns="http://www.w3.org/2000/svg">
<path d="M159.5 462C175.24 462 188 474.76 188 490.5C188 506.24 175.24 519 159.5 519C143.76 519 131 506.24 131 490.5C131 474.76 143.76 462 159.5 462ZM160 0C248.366 0 320 71.6344 320 160C320 242.623 257.373 310.616 177 319.104V449H142V281.768C147.717 282.578 153.559 283 159.5 283C227.707 283 283 227.707 283 159.5C283 91.2928 227.707 36 159.5 36C91.2928 36 36 91.2928 36 159.5C36 159.667 36.0023 159.833 36.0029 160H0C0 71.6344 71.6344 0 160 0Z" fill="white"/>
</svg>
